<svg width="54" height="32" viewBox="0 0 54 32" fill="none" xmlns="http://www.w3.org/2000/svg">
<g clip-path="url(#clip0_2566_1542)">
<path d="M19.1542 32C20.1198 31.4396 24.6049 29.9448 24.6049 21.8149V2.61672C24.5575 1.53217 24.2934 0.380785 23.2876 0.00595678L28.8326 0C27.771 0.491529 27.6276 1.45319 27.5971 2.6123L27.5951 21.7915C27.5951 23.4115 26.6917 30.8482 19.1542 32" fill="white"/>
<path d="M1.6994 19.3082C1.6994 20.6313 1.93788 22.8782 0.0116924 23.4364L6.65088 23.4543C4.72492 22.8068 4.95149 20.6606 4.95149 19.3082V8.22322C4.95149 6.89997 4.67307 4.66293 6.59926 4.13367L0 4.10654C1.92619 4.7536 1.6994 6.89997 1.6994 8.22322V19.3082Z" fill="white"/>
<path d="M5.95795 13.1482L14.5604 22.0321C15.2403 22.7381 16.7672 23.4542 18.6179 23.4542H22.1681C20.2421 22.6308 18.659 22.1492 17.2499 20.8392L9.51757 13.1151L18.5068 4.09146L11.8954 4.10646C14.426 5.07717 12.4072 6.63162 11.1614 8.01378L5.95795 13.1482Z" fill="white"/>
<path d="M31.6791 23.6584L31.6888 23.6584C31.6873 23.6578 31.6857 23.6573 31.6843 23.6567C31.6825 23.6572 31.6809 23.6578 31.6791 23.6584Z" fill="white"/>
<path d="M33.8533 23.6579C33.7383 23.6579 33.62 23.6602 33.5009 23.6633C33.5009 23.6633 35.5186 23.6317 35.2319 23.6317C34.9444 23.6317 34.4805 23.6317 33.8533 23.6579Z" fill="white"/>
<path d="M50.7566 6.93122C47.9079 3.95178 43.5432 3.95178 40.2763 3.95178C38.7082 3.95178 37.1728 4.03013 36.3626 4.03013C35.8517 4.03013 34.5655 4.04608 33.7007 4.05573L32.7784 4.05194C34.7321 4.70826 34.5021 6.88534 34.5021 8.22752V19.4712C34.5021 20.5705 34.6635 22.2981 33.6482 23.1983C33.4018 23.413 33.1103 23.5696 32.7954 23.6567C32.7968 23.6573 32.7984 23.6578 32.7999 23.6584L34.612 23.6633C34.7311 23.6602 36.7465 23.6474 37.1183 23.6709C37.594 23.7011 38.1246 23.7446 38.682 23.7885C39.6752 23.867 40.7467 23.9453 41.6876 23.9453C46.5227 23.9453 49.2408 22.0897 50.443 20.8614C51.9066 19.3717 53.2917 16.8626 53.2917 13.5696C53.2917 10.4595 52.0634 8.2903 50.7566 6.93122ZM47.5943 20.8352C46.0261 22.1943 44.2489 22.717 41.5831 22.717C39.5184 22.717 38.4991 22.1682 38.1593 21.6716C37.9503 21.3841 37.898 20.3387 37.8719 19.6853C37.8457 19.1887 37.8196 17.1763 37.8196 14.406V11.1128C37.8196 9.04812 37.8196 6.77442 37.8457 5.88573C37.8457 5.59829 37.9241 5.46765 38.1593 5.36304C38.3684 5.25855 39.3354 5.1801 39.8582 5.1801C41.8967 5.1801 44.8762 5.4938 47.2806 7.79364C48.4044 8.86517 49.7896 11.0083 49.7896 14.3275C49.7896 17.0195 49.2669 19.3978 47.5943 20.8352Z" fill="white"/>
</g>
<defs>
<clipPath id="clip0_2566_1542">
<rect width="53.2918" height="32" fill="white"/>
</clipPath>
</defs>
</svg>
