<svg xmlns="http://www.w3.org/2000/svg" viewBox="0 0 479.61674 287.9945"><defs><style>.a{fill:#70259b;}</style></defs><path class="a" d="M172.38444,287.9945c8.6905-5.04316,49.05571-18.4969,49.05571-91.66449V23.55c-.42694-9.76071-2.80356-20.123-11.85543-23.49639L259.48824,0c-9.55424,4.42368-10.8448,13.07846-11.1188,23.51029l-.01788,172.60925c0,14.57952-8.13061,81.50868-75.96712,91.875"/><path class="a" d="M15.2943,173.771c0,11.907,2.14632,32.12933-15.18907,37.15265l59.75158.16081C42.52342,205.257,44.56252,185.94209,44.56252,173.771V74.00765c0-11.909-2.50569-32.042,14.82968-36.80519L0,36.95824c17.33539,5.82347,15.2943,25.14039,15.2943,37.04941Z"/><path class="a" d="M53.62057,118.3311l77.42053,79.954c6.11931,6.35358,19.86094,12.79851,36.51728,12.79851H199.509c-17.33339-7.40988-31.58133-11.74422-44.26271-23.53411L85.65658,118.03329,166.5577,36.82245l-59.50142.135c22.77565,8.73618,4.60636,22.726-6.60576,35.16516Z"/><path class="a" d="M285.10673,212.92131l.08716.00024c-.01331-.00531-.02784-.01-.041-.01538C285.137,212.91081,285.1226,212.91667,285.10673,212.92131Z"/><path class="a" d="M304.67387,212.91691c-1.03516,0-2.09961.02063-3.17151.04853,0,0,18.15857-.28388,15.57873-.28388C314.49369,212.68156,310.31889,212.68156,304.67387,212.91691Z"/><path class="a" d="M456.80131,62.3798C431.16264,35.56535,391.88187,35.56535,362.48,35.56535c-14.11279,0-27.93115.70508-35.22266.70508-4.59765,0-16.17358.14361-23.9563.23041L295,36.46672c17.58349,5.9068,15.51318,25.50012,15.51318,37.57953V175.237c0,9.89374,1.453,25.44208-7.68518,33.54413a19.66175,19.66175,0,0,1-7.67517,4.125c.01318.00543.02771.01007.041.01538l16.30847.04389c1.0719-.0279,19.21032-.14332,22.55664.06878,4.28088.2713,9.05627.66272,14.07287,1.05847,8.93848.70606,18.582,1.41114,27.04981,1.41114,43.51465,0,67.97705-16.7002,78.79687-27.75489,13.17188-13.40722,25.63819-35.98828,25.63819-65.625C479.61674,94.13371,468.56156,74.61125,456.80131,62.3798ZM428.34037,187.51359c-14.11328,12.23145-30.10742,16.93555-54.09961,16.93555-18.582,0-27.75537-4.93945-30.813-9.4082-1.88183-2.58789-2.35205-11.9961-2.5874-17.877-.23535-4.46875-.47021-22.58008-.47021-47.51269v-29.6377c0-18.582,0-39.04492.23486-47.043,0-2.58691.706-3.76269,2.82275-4.7041,1.88184-.94043,10.58448-1.64648,15.28906-1.64648,18.34668,0,45.16114,2.82324,66.80079,23.52148,10.11425,9.64356,22.58056,28.93164,22.58056,58.80371C448.09818,153.17277,443.39408,174.57707,428.34037,187.51359Z"/></svg>